<?xml version="1.0" standalone="no"?>
<!DOCTYPE svg PUBLIC "-//W3C//DTD SVG 20010904//EN"
 "http://www.w3.org/TR/2001/REC-SVG-20010904/DTD/svg10.dtd">
<svg version="1.0" xmlns="http://www.w3.org/2000/svg"
 width="757.000000pt" height="757.000000pt" viewBox="0 0 757.000000 757.000000"
 preserveAspectRatio="xMidYMid meet">
<metadata>
Created by potrace 1.14, written by Peter Selinger 2001-2017
</metadata>
<g transform="translate(0.000000,757.000000) scale(0.100000,-0.100000)"
fill="#000000" stroke="none">
<path d="M3238 7556 c-137 -36 -222 -170 -243 -386 -3 -30 -8 -80 -11 -110 -6
-64 -11 -109 -19 -165 -2 -22 -7 -57 -9 -77 -3 -21 -8 -53 -11 -70 -3 -18 -7
-44 -9 -58 -24 -152 -124 -368 -243 -523 -142 -185 -339 -351 -675 -570 -187
-121 -424 -247 -525 -279 -43 -13 -56 -27 -28 -29 8 -1 18 -2 23 -3 4 -1 36
-6 72 -10 36 -4 74 -10 85 -12 29 -6 304 -5 345 1 176 26 309 78 550 213 453
254 666 345 860 369 25 3 52 7 60 9 8 1 17 3 20 3 3 1 5 342 4 759 -1 680 -3
761 -18 801 -43 116 -123 164 -228 137z"/>
<path d="M4235 7560 c-43 -9 -79 -35 -108 -78 -52 -77 -51 -63 -52 -871 l0
-754 40 -3 c148 -12 291 -59 520 -170 107 -53 128 -64 285 -151 319 -177 469
-243 590 -258 29 -4 62 -9 74 -11 50 -11 310 -5 406 10 8 1 41 6 73 10 63 9
64 15 2 35 -123 41 -353 166 -575 314 -375 249 -575 438 -717 675 -78 132
-141 306 -158 441 -4 30 -8 63 -11 74 -2 10 -6 45 -9 76 -4 31 -8 67 -10 81
-4 27 -13 115 -20 193 -18 214 -115 359 -256 385 -24 5 -58 5 -74 2z"/>
<path d="M2335 6936 c-187 -90 -336 -162 -425 -204 -47 -22 -148 -70 -225
-107 -77 -37 -180 -87 -230 -110 -49 -23 -157 -75 -240 -115 -82 -40 -186 -89
-230 -110 -424 -201 -445 -213 -488 -295 -20 -39 -21 -52 -22 -502 0 -255 1
-463 4 -463 4 0 159 72 201 93 l25 13 0 379 0 380 110 55 c61 30 169 83 240
117 72 34 207 99 300 143 94 45 204 98 245 117 41 19 143 68 225 108 83 40
186 89 230 110 276 129 346 166 354 188 8 20 15 61 26 142 2 17 7 49 10 73 3
23 5 42 3 41 -2 0 -52 -24 -113 -53z"/>
<path d="M5114 6956 c3 -20 9 -58 12 -85 3 -28 11 -74 17 -103 l12 -53 91 -45
c49 -25 137 -67 195 -94 57 -27 183 -88 279 -134 96 -46 207 -99 245 -117 39
-18 135 -64 215 -103 386 -186 653 -312 661 -312 12 0 11 28 13 -398 l1 -383
80 -33 c44 -18 94 -40 112 -49 18 -9 34 -17 36 -17 3 0 5 201 5 448 0 418 -1
450 -19 499 -35 93 -48 101 -524 328 -49 24 -147 70 -217 104 -322 154 -390
186 -485 232 -191 91 -317 151 -443 211 -69 33 -159 76 -200 95 -41 19 -79 37
-83 40 -5 3 -6 -11 -3 -31z"/>
<path d="M3437 5264 c-1 -1 -20 -4 -42 -7 -98 -14 -226 -72 -495 -225 -602
-341 -880 -414 -1310 -342 -108 18 -146 21 -260 25 -63 2 -140 -1 -170 -6 -30
-5 -69 -11 -86 -14 -177 -28 -465 -177 -639 -332 -49 -44 -48 -52 2 -32 15 6
69 12 118 14 133 5 228 -23 405 -122 173 -96 458 -188 723 -234 131 -22 153
-25 267 -34 41 -4 91 -8 110 -10 19 -3 137 -7 261 -10 301 -7 353 -12 495 -45
237 -55 446 -164 581 -302 35 -34 68 -71 75 -81 11 -14 13 151 13 872 l0 889
-23 -2 c-13 0 -24 -2 -25 -2z"/>
<path d="M4079 5266 c-1 0 -2 -400 -3 -889 -1 -631 2 -883 10 -873 24 34 93
104 139 142 111 90 222 149 382 204 72 25 107 34 213 55 88 18 182 25 418 30
242 5 343 12 472 30 14 2 50 7 80 10 30 3 62 8 70 10 8 2 31 7 50 10 19 3 47
8 61 10 172 30 472 134 629 218 191 103 271 127 406 122 49 -2 102 -8 117 -14
50 -19 50 -12 2 32 -127 114 -345 243 -500 295 -110 37 -225 56 -345 56 -106
1 -244 -9 -273 -19 -12 -4 -45 -9 -167 -22 -334 -36 -647 55 -1121 327 -319
183 -479 254 -592 263 -26 3 -48 4 -48 3z"/>
<path d="M515 3797 l-40 -13 0 -393 c0 -353 2 -398 18 -441 32 -86 74 -115
352 -245 83 -39 242 -115 450 -215 83 -40 186 -89 230 -110 44 -21 157 -75
250 -120 173 -84 273 -130 279 -130 6 0 -19 91 -55 200 -31 93 -34 98 -71 115
-22 9 -119 55 -216 102 -97 47 -222 107 -277 133 -104 50 -247 118 -475 227
-74 36 -158 76 -187 89 -28 12 -55 29 -59 36 -5 7 -9 175 -9 373 l0 360 -35
17 c-50 23 -108 29 -155 15z"/>
<path d="M6920 3794 c-25 -9 -50 -20 -55 -24 -7 -6 -10 -136 -9 -367 0 -218
-3 -363 -9 -371 -6 -7 -33 -23 -61 -36 -28 -13 -118 -56 -201 -96 -82 -40
-197 -95 -255 -122 -58 -28 -161 -78 -230 -110 -138 -66 -303 -145 -422 -202
-60 -29 -81 -44 -92 -69 -18 -38 -86 -261 -81 -265 2 -2 32 10 67 26 85 41
285 136 443 212 166 80 327 157 435 208 77 36 258 123 458 219 84 40 121 72
154 134 23 44 23 47 25 447 l3 403 -26 9 c-48 19 -99 20 -144 4z"/>
<path d="M1745 3392 c191 -113 340 -227 450 -343 60 -63 135 -160 135 -174 0
-2 13 -26 28 -52 76 -130 212 -528 248 -728 16 -87 93 -370 143 -521 122 -371
333 -857 522 -1201 51 -94 103 -186 116 -208 7 -11 16 -27 20 -35 15 -31 73
-125 74 -120 1 3 2 628 3 1389 l1 1384 -40 46 c-140 161 -320 303 -501 394
-75 38 -228 92 -284 102 -19 3 -42 8 -50 10 -35 9 -126 15 -292 20 -169 4
-288 14 -408 35 -30 5 -72 12 -93 16 -22 3 -60 12 -85 20 -74 22 -72 17 13
-34z"/>
<path d="M5825 3424 c-27 -8 -67 -16 -89 -19 -21 -3 -41 -7 -45 -9 -3 -2 -28
-7 -56 -10 -27 -3 -66 -7 -85 -10 -91 -13 -157 -17 -324 -21 -100 -3 -221 -12
-270 -20 -268 -46 -530 -191 -765 -426 -46 -46 -91 -95 -100 -109 -15 -22 -16
-146 -16 -1407 0 -761 2 -1383 5 -1383 24 1 363 647 485 925 108 245 269 675
300 802 3 10 19 70 35 133 17 63 38 147 46 185 9 39 17 77 19 85 22 100 100
366 124 425 5 11 21 52 37 90 94 237 192 371 389 530 92 74 256 185 333 225
64 33 58 37 -23 14z"/>
</g>
</svg>
