<?xml version="1.0" encoding="utf-8"?>
<!-- Generator: Adobe Illustrator 25.2.0, SVG Export Plug-In . SVG Version: 6.00 Build 0)  -->
<svg version="1.1" id="Layer_1" xmlns="http://www.w3.org/2000/svg" xmlns:xlink="http://www.w3.org/1999/xlink" x="0px" y="0px"
	 viewBox="0 0 425.7 132.2" style="enable-background:new 0 0 425.7 132.2;" xml:space="preserve">
<style type="text/css">
	.st0{fill:#FFFFFF;}
</style>
<g>
	<g id="Layer_2_2_">
		<g id="Layer_1-2_1_">
			<path class="st0" d="M113,79.4c0.1-0.1,0.2-0.2,0.2-0.3V66.4c0,0,1.4-0.7,2.2-0.7c0.6,0,1.2,0.2,1.7,0.5v12.9
				c0,1.7-1,3.2-2.5,3.9L89.5,95.1c0.5-1.8,1-3.5,1.7-5.2L113,79.4z"/>
			<path class="st0" d="M25.7,50.7c-3.2,0-6.4-0.9-10-0.9c-9.1,0-15.7,7-15.7,7s4-1.8,8.8,0.9c5.6,3.2,13.5,5.8,26.7,5.8
				c13.8,0,18.6,7.7,18.7,7.7l0,0v-31l0,0C47.1,40.2,38,50.7,25.7,50.7z"/>
			<path class="st0" d="M71.8,2.5c0.5,0.9,1,2.2,1.2,4c0.1,0.5,0.6,7.3,1.4,10.1c1.6,6.1,6.1,10.9,10.2,14c11,8.1,15.7,9,15.7,9
				s-7.4,1.7-13-0.2c-6.4-2.1-15-9.4-22.9-9.6V4.4c0,0,0-2.1,1.4-3.5C67.7-1,70.7,0.5,71.8,2.5z"/>
			<path class="st0" d="M93,50.7c3.2,0,6.4-0.9,10-0.9c9.1,0,15.7,7,15.7,7s-4-1.8-8.8,0.9c-5.6,3.2-13.5,5.8-26.7,5.8
				c-13.9,0-18.7,7.7-18.7,7.7v-31C71.6,40.2,80.6,50.7,93,50.7z"/>
			<path class="st0" d="M46.9,2.5c-0.5,0.9-1,2.2-1.2,4C45.6,7,45,13.7,44.3,16.6c-1.6,6.1-6.1,10.9-10.2,14c-11,8.1-15.7,9-15.7,9
				s7.4,1.7,13-0.2c6.4-2.1,15-9.4,22.9-9.6l0,0V4.4c0,0,0-2.1-1.4-3.5C50.9-1,48,0.5,46.9,2.5z"/>
			<path class="st0" d="M54.2,83.7c0,0-7.3-10-18.7-10c-8.4,0-13.2-1.6-13.2-1.6c0.1,0.1,7.4,3.8,11,8.7c3.2,4.5,5.2,12.9,5.8,15.8
				c3.9,17.9,15.1,35.7,15.1,35.7V83.7z"/>
			<path class="st0" d="M64.5,83.7c0,0,7.3-10,18.7-10c8.4,0,13.2-1.6,13.2-1.6c-0.1,0.1-7.4,3.8-11,8.7c-3.2,4.5-5.2,12.9-5.8,15.8
				c-3.9,17.9-15.1,35.7-15.1,35.7V83.7z"/>
			<path class="st0" d="M5.5,29.3c0-0.1,0.1-0.3,0.2-0.3l29.5-14.1c0.1-0.2,0.1-0.4,0.2-0.6c0.1-0.3,0.3-1.3,0.6-4.2L4,25.4
				c-1.5,0.7-2.5,2.2-2.5,3.9v15.1c1.3-0.7,2.6-1.3,4-1.8V29.3z"/>
			<path class="st0" d="M5.7,79.4c-0.1-0.1-0.2-0.2-0.2-0.3V66.4c0,0-1.4-0.7-2.2-0.7c-0.6,0-1.2,0.2-1.7,0.5v12.9
				c0,1.7,1,3.2,2.5,3.9l25.2,12.1c-0.5-1.8-1-3.5-1.7-5.2L5.7,79.4z"/>
			<path class="st0" d="M83.5,14.9L113,29c0.1,0.1,0.2,0.2,0.2,0.3v13.2c1.4,0.5,2.7,1.1,4,1.8V29.3c0-1.7-1-3.2-2.5-3.9l-32-15.3
				c0.3,2.8,0.6,3.9,0.6,4.2C83.3,14.5,83.4,14.7,83.5,14.9z"/>
		</g>
	</g>
</g>
<g>
	<path class="st0" d="M152.4,101.1c-1.4-0.8-2.2-1.7-2.6-2.6c-0.4-0.9-0.6-1.7-0.6-2.3c0-1.7,0.6-4.1,1.9-7.1c1.3-3,3-6.4,5.1-10.2
		s4.5-7.8,7.1-11.9c-2.3-0.2-4.3-0.3-5.9-0.4c-1.6-0.1-3-0.1-4.2-0.1H150c0.7-1.8,1.9-3.1,3.6-3.8c1.7-0.7,3.7-1.1,6.1-1.1
		c1.1,0,2.1,0.1,3.3,0.2c1.1,0.1,2.3,0.3,3.5,0.5c3.2-4.8,6.4-9.4,9.7-13.9c3.3-4.5,6.4-8.5,9.3-12c2.9-3.5,5.3-6.2,7.2-8
		c1.8-1.7,3.3-2.6,4.5-2.6c0.7,0,1.4,0.3,2.3,0.8c0.8,0.5,1.7,1.3,2.7,2.2c-0.6,0.5-1.4,1.8-2.4,4c-1,2.1-2,4.8-3.1,8.1
		c-1.1,3.2-2.2,6.8-3.2,10.6c-1.1,3.9-2,7.8-2.9,11.8c-0.9,4-1.6,7.8-2.1,11.4c-0.5,3.6-0.8,6.8-0.8,9.5c0,2.4,0.3,4.2,0.8,5.5
		c0.5,1.3,1.4,2,2.7,2c1.6,0,3.5-1.1,5.5-3.4c2.1-2.2,4.3-5.7,6.7-10.4l0.9,0.9c-1.9,5-4.2,9.1-7.1,12.2c-2.9,3.2-5.9,4.8-9,4.8
		c-2.6,0-4.4-1.1-5.6-3.4c-1.2-2.3-1.7-5.3-1.7-9.1c0-2,0.1-4.2,0.4-6.5c0.3-2.4,0.7-4.8,1.2-7.4c-2.7-0.4-5.2-0.8-7.5-1.1
		c-2.3-0.3-4.4-0.5-6.3-0.8c-2.9,5.4-5.8,11-8.5,16.7C157.3,89.9,154.7,95.6,152.4,101.1z M183.1,66.1c0.9-4.1,2-8.3,3.3-12.5
		c1.2-4.2,2.6-8.2,4-12c1.4-3.8,2.7-7.1,4-10c-1.9,1.2-4.2,3.3-6.7,6.3c-2.5,3-5.2,6.7-8,11c-2.8,4.3-5.7,9.1-8.6,14.2
		c2.1,0.4,4.2,0.9,6.3,1.4C179.4,65.2,181.3,65.7,183.1,66.1z"/>
	<path class="st0" d="M208.2,95.4c-2.4,0-4.2-0.8-5.4-2.3c-1.2-1.5-1.8-3.4-1.8-5.6c0-1.4,0.3-3.2,0.8-5.4c0.5-2.2,1.2-4.5,2.1-6.9
		c0.9-2.4,1.9-4.6,3-6.8c1.2-2.1,2.4-3.8,3.7-5.2c1.3-1.3,2.6-2,3.8-2c0.6,0,1,0.2,1.4,0.5c0.4,0.3,0.6,0.9,0.6,1.5
		c0,0.7-0.5,2-1.4,3.6c-1,1.7-2.1,3.6-3.4,5.8c-1.3,2.2-2.4,4.5-3.4,6.9c-1,2.4-1.4,4.7-1.4,6.9c0,2.2,0.4,3.7,1.1,4.5
		c0.7,0.7,1.9,1.1,3.5,1.1c2.1,0,4.4-1.1,6.8-3.2c2.4-2.1,4.9-5.8,7.6-11.1l0.8,0.9c-1.8,5.4-4.4,9.5-7.8,12.3
		C215.4,94,211.8,95.4,208.2,95.4z M219.3,52.7c-1,0-1.9-0.2-2.7-0.7c-0.8-0.5-1.2-1.3-1.2-2.3c0-1.3,0.8-2.4,2.3-3.4
		c1.5-1,3-1.4,4.5-1.4c0.9,0,1.7,0.2,2.2,0.7c0.6,0.4,0.8,1.2,0.8,2.2c0,1.2-0.6,2.3-1.9,3.4C222.2,52.1,220.8,52.7,219.3,52.7z"/>
	<path class="st0" d="M240.1,95.4c-2.1,0-3.8-0.6-5-1.7c-1.2-1.1-1.8-2.6-1.8-4.4c0-1.9,0.4-3.8,1.3-5.9c0.9-2.1,1.7-4.1,2.6-6.1
		c0.8-2,1.3-3.8,1.3-5.5c0-2-0.6-3.5-1.7-4.4c-1.2-1-2.3-1.9-3.5-2.7c-1.4,3.7-2.9,7.2-4.5,10.4c-1.6,3.3-2.8,5.8-3.8,7.5l-0.8-1.6
		c0.9-1.6,2-4,3.4-7.1c1.4-3.1,2.8-6.7,4.2-10.6c-0.6-0.6-0.9-1.4-0.9-2.2c0-1.9,0.5-3.4,1.6-4.6c1.1-1.2,1.8-1.8,2.3-1.8
		c0.7,0,1.1,0.3,1.2,0.9c0.1,0.6,0.1,1,0.1,1.4c0,0.3-0.2,0.9-0.5,1.8c-0.3,0.9-0.5,1.4-0.5,1.6c0,0.9,0.5,1.7,1.4,2.4
		c1,0.7,2.1,1.5,3.3,2.4c1.2,0.9,2.3,2,3.3,3.3c1,1.3,1.4,2.9,1.4,4.9c0,1.9-0.4,3.8-1.2,5.7c-0.8,1.9-1.6,3.8-2.3,5.5
		c-0.8,1.7-1.2,3.3-1.2,4.6c0,1.1,0.3,1.9,0.8,2.2s1.2,0.6,2,0.6c1.5,0,3-0.5,4.6-1.4c1.6-0.9,3.1-2.1,4.6-3.5
		c1.5-1.4,2.8-2.9,4-4.5c1.2-1.6,2.1-3.1,2.6-4.4l1.2,0.9c-1.2,2.6-2.8,5.2-4.9,7.7c-2.1,2.5-4.3,4.6-6.9,6.2
		C245.3,94.6,242.7,95.4,240.1,95.4z"/>
	<path class="st0" d="M282.7,96.6c-1.9,0-3.3-0.9-4-2.7c-0.7-1.8-1.1-3.9-1.1-6.4c0-1.2,0.1-2.6,0.2-4.1c0.1-1.5,0.3-2.9,0.5-4.3
		c-1.4,2.7-2.8,5.4-4.4,7.9c-1.6,2.6-3.3,4.6-5,6.3c-1.7,1.6-3.6,2.4-5.5,2.4c-2.1,0-3.7-0.9-5-2.8c-1.3-1.9-2-4.1-2-6.6
		c0-1.8,0.3-3.9,0.9-6.3c0.6-2.4,1.3-4.7,2.2-7c0.9-2.3,1.8-4.2,2.7-5.7c0.9-1.5,1.7-2.2,2.4-2.2c0.3,0,1,0.2,2,0.5
		c1,0.3,1.5,0.8,1.5,1.4c-0.7,1.1-1.5,2.7-2.5,4.9c-1,2.2-1.9,4.5-2.6,7c-0.7,2.5-1.1,4.8-1.1,6.9c0,0.5,0.1,1.3,0.2,2.3
		c0.1,1,0.4,1.9,0.9,2.8c0.5,0.8,1.2,1.2,2.2,1.2c1.4,0,3-0.9,4.6-2.7c1.6-1.8,3.2-4.1,4.9-6.8c1.6-2.7,3.1-5.5,4.6-8.3
		c0.5-2.5,0.9-4.4,1.3-5.6c0.3-1.2,0.7-1.9,1.1-2.3c0.4-0.3,0.8-0.5,1.4-0.5c0.8,0,1.5,0.2,2,0.5c0.5,0.3,0.7,0.9,0.7,1.5
		c0,0.1,0,0.3,0,0.5c0,0.2-0.1,0.4-0.1,0.6c-0.4,1.5-0.9,3.4-1.3,5.6c-0.4,2.3-0.7,4.6-1,7c-0.2,2.4-0.4,4.7-0.4,6.8
		c0,1.4,0.2,2.6,0.5,3.4c0.3,0.8,0.8,1.2,1.6,1.2c0.9,0,2-0.6,3.3-1.7c1.2-1.2,2.5-2.7,3.9-4.6c1.3-1.9,2.6-4,3.9-6.2
		c1.3-2.2,2.4-4.4,3.4-6.6c0-3.2,0.2-5.7,0.7-7.4c0.5-1.7,1.1-2.9,1.8-3.5c0.7-0.6,1.4-0.9,2.2-0.9c1.2,0,2,0.4,2.6,1.3
		c0.5,0.8,0.8,1.6,0.8,2.3c0,0.4-0.1,0.9-0.3,1.4c-0.2,0.5-0.4,1-0.7,1.5c-0.5,0.9-1,2.1-1.5,3.6c-0.5,1.5-0.7,3.5-0.7,6
		c0,1,0.1,2.1,0.3,3.2c0.2,1.1,0.6,2.1,1.2,2.8c0.6,0.7,1.6,1.1,2.9,1.1c1.3,0,2.6-0.5,3.8-1.5s2.4-2.8,3.6-5.4l1.2,0.9
		c-1.4,3.1-2.9,5.2-4.5,6.3c-1.6,1.1-3.2,1.6-4.7,1.6c-1.9,0-3.6-0.7-4.9-2c-1.3-1.3-2.3-3.3-2.9-5.9c-1.6,2.9-3.3,5.6-5.2,8.3
		c-1.9,2.7-3.9,4.9-6,6.6C286.6,95.8,284.6,96.6,282.7,96.6z"/>
	<path class="st0" d="M318.4,97.4c-1.9,0-3.6-0.6-4.9-1.9c-1.3-1.3-2-3.2-2-5.8c0-2.2,0.5-4.6,1.5-7.2c1-2.6,2.4-5.1,4.1-7.7
		c1.7-2.5,3.7-4.8,5.9-6.9c2.2-2.1,4.5-3.7,7-5c2.5-1.2,4.9-1.9,7.3-1.9s4.4,0.6,6.1,1.9c1.6,1.3,2.4,3,2.4,5.1
		c0,1.6-0.4,2.6-1.3,3.2c-0.8,0.6-1.9,0.8-3.3,0.8c0.1-0.5,0.2-1,0.3-1.6c0.1-0.6,0.1-1.1,0.1-1.6c0-1.4-0.3-2.7-1-3.7
		s-1.9-1.5-3.5-1.5c-1.7,0-3.5,0.6-5.3,1.8c-1.8,1.2-3.5,2.8-5.2,4.9c-1.7,2-3.2,4.2-4.5,6.6c-1.3,2.4-2.3,4.7-3.1,7
		c-0.7,2.3-1.1,4.4-1.1,6.2c0,2.4,0.8,3.6,2.5,3.6c1.4,0,3-0.7,4.7-2c1.7-1.3,3.4-3,5.2-5.1c1.8-2.1,3.5-4.2,5.1-6.5
		c1.6-2.2,3-4.3,4.3-6.2c0.2-0.4,0.4-0.6,0.5-0.6c0.4,0.1,0.9,0.2,1.4,0.4c0.6,0.2,1.1,0.4,1.5,0.7c0.4,0.3,0.7,0.7,0.7,1.2
		c0,0.6-0.3,1.3-0.8,2.3c-0.6,1-1.2,2.1-1.9,3.3c-0.7,1.2-1.3,2.5-1.9,3.8c-0.6,1.3-0.8,2.5-0.8,3.6c0,0.9,0.2,1.9,0.7,2.8
		c0.5,0.9,1.3,1.4,2.4,1.4c1.7,0,3.9-1.2,6.6-3.7c2.7-2.5,5.5-6.1,8.3-11.1l0.9,0.9c-1.3,3.4-3,6.3-5,8.9c-2.1,2.6-4.2,4.5-6.6,6
		c-2.3,1.4-4.6,2.1-6.9,2.1c-2.3,0-4-0.7-5.1-2.1c-1.1-1.4-1.6-2.9-1.6-4.5c0-0.4,0-0.8,0.1-1.3c0.1-0.5,0.1-0.9,0.2-1.4
		c-2.7,3.6-5.1,6.3-7.3,8.1C323,96.5,320.7,97.4,318.4,97.4z"/>
	<path class="st0" d="M358.6,119.1c-1.6,0-2.9-0.4-4.1-1.3c-1.2-0.8-1.8-2.1-1.8-3.7c0-2,0.5-3.8,1.5-5.3s2.3-3,4-4.3
		c1.7-1.3,3.6-2.6,5.8-3.7c2.2-1.2,4.4-2.4,6.8-3.5c0.9-2.3,1.8-4.9,2.7-7.7c0.9-2.8,1.8-6,2.6-9.4c-2,3.2-4.1,6-6.4,8.4
		c-2.3,2.3-4.7,3.5-7.2,3.5c-1.2,0-2.3-0.3-3.5-0.8c-1.2-0.5-2.1-1.4-2.8-2.5c-0.7-1.1-1.1-2.5-1.1-4.3c0-1.7,0.3-3.8,0.9-6.1
		c0.6-2.3,1.3-4.5,2.2-6.7c0.9-2.2,1.8-4,2.7-5.4c0.9-1.4,1.7-2.1,2.4-2.1c0.2,0,0.7,0.1,1.4,0.3s1.3,0.5,1.9,0.8
		c0.6,0.3,0.9,0.7,0.9,1.1c-0.6,0.8-1.2,2-1.9,3.5s-1.4,3.2-2,5c-0.7,1.8-1.2,3.6-1.6,5.4c-0.4,1.7-0.7,3.2-0.7,4.5
		c0,1.1,0.2,2,0.7,2.7c0.5,0.7,1.4,1,2.6,1c1.2,0,2.5-0.6,4-1.7c1.5-1.1,2.9-2.6,4.4-4.4c1.5-1.8,2.8-3.7,4.1-5.8
		c0.2-0.7,0.4-1.4,0.5-2.1c0.2-0.7,0.3-1.4,0.4-2.2c0.2-0.9,0.6-1.9,1.4-3c0.7-1.2,1.9-1.7,3.4-1.7c0.3,0,0.6,0,0.9,0
		c0.3,0,0.7,0.1,1,0.2c0,1-0.3,2.8-0.9,5.6c-0.6,2.7-1.4,5.9-2.5,9.5c-1.1,3.6-2.4,7.3-3.9,11.1c2.9-1.1,5.8-3,8.6-5.6
		c2.8-2.6,5.1-6,6.8-10.3l1.2,0.9c-0.9,3-2.3,5.6-4.2,7.8c-1.9,2.2-4,4.1-6.4,5.7c-2.4,1.6-4.7,2.9-7,4c-1.6,4-3.4,7.7-5.3,11.2
		c-1.9,3.5-3.9,6.3-6,8.4C362.9,118,360.8,119.1,358.6,119.1z M358.2,116.1c0.9,0,2.5-1.2,4.7-3.7c2.2-2.5,4.6-6.8,7-12.9
		c-2.6,1.4-4.9,2.7-7.1,4.1c-2.2,1.3-3.9,2.8-5.2,4.3c-1.3,1.6-2,3.4-2,5.4c0,0.5,0.2,1.1,0.6,1.8
		C356.6,115.8,357.2,116.1,358.2,116.1z"/>
	<path class="st0" d="M400.7,97.8c-2.9,0-5.2-0.6-7-1.9c-1.7-1.3-2.9-2.8-3.6-4.7c-0.7-1.9-1.1-3.7-1.1-5.6c0-1.9,0.2-3.3,0.7-4.3
		c0.5-1,1.1-1.7,1.8-2.2c0.7-0.5,1.4-0.9,2.1-1.1c0.7-0.2,1.1-0.5,1.4-0.7c1.9-2.1,3.6-4.2,5.1-6.4c1.6-2.2,2.9-4.6,4.1-7.1v-1.1
		c0-2.3,0.4-3.9,1.2-4.9c0.8-1,1.6-1.4,2.5-1.4c0.5,0,0.9,0.1,1.1,0.4c0.2,0.2,0.4,0.5,0.4,0.8c0,0.3-0.1,0.8-0.3,1.5
		c-0.2,0.7-0.3,1.6-0.3,2.6c0,2.1,0.4,4.3,1.2,6.7c0.8,2.4,1.6,4.9,2.4,7.6c0.8,2.6,1.2,5.4,1.2,8.3c0,0.8,0,1.6-0.1,2.4
		c-0.1,0.8-0.2,1.5-0.4,2.2c2.2-0.4,4.2-1.4,6.2-2.9c1.9-1.6,3.8-4.1,5.6-7.6l0.8,0.9c-1.2,3.4-3,6-5.3,7.8
		c-2.4,1.8-4.9,2.9-7.7,3.3c-1,2.7-2.6,4.6-4.7,5.9C405.8,97.1,403.4,97.8,400.7,97.8z M400.9,94.5c0.7,0,1.7-0.2,3-0.7
		c1.2-0.5,2.2-1.8,2.9-3.8c-2.6-0.5-4.9-1.5-7-3.1c-2-1.6-3.5-3.1-4.5-4.7c-1.4,0.1-2.1,1.2-2.1,3.3c0,2.2,0.7,4.3,2,6.2
		C396.6,93.5,398.5,94.5,400.9,94.5z M407.3,88.4c0.1-0.6,0.2-1.3,0.3-2c0.1-0.7,0.1-1.5,0.1-2.4c0-2.9-0.4-5.8-1.1-8.7
		c-0.7-2.9-1.3-5.6-1.8-8.2c-1.4,2.4-2.9,4.6-4.5,6.8s-3.1,3.9-4.5,5.4c0.9,2,2.4,3.9,4.3,5.6C402,86.6,404.4,87.8,407.3,88.4z"/>
</g>
</svg>
