<?xml version="1.0" encoding="utf-8"?>
<!-- Generator: Adobe Illustrator 19.0.0, SVG Export Plug-In . SVG Version: 6.00 Build 0)  -->
<svg version="1.1" id="Layer_1" xmlns="http://www.w3.org/2000/svg" xmlns:xlink="http://www.w3.org/1999/xlink" x="0px" y="0px"
	 width="462.4px" height="133.6px" viewBox="0 0 462.4 133.6" style="enable-background:new 0 0 462.4 133.6;" xml:space="preserve"
	>
<style type="text/css">
	.st0{fill:#FFFFFF;}
</style>
<g id="XMLID_2_">
	<path id="XMLID_8_" class="st0" d="M133.6,66.8c0,36.9-29.8,66.8-66.8,66.8C29.4,133.7-0.5,103,0,65.8C0.5,29.8,29.9-0.3,67.5,0
		C104.6,0.3,133.7,30.6,133.6,66.8z M4.2,67.7c0.3,34.5,29.3,62.9,64.8,61.7c33.4-1.1,61.3-29.1,60.4-64.3
		c-0.9-33.9-29.2-61.7-64.1-60.8C31.2,5,3.7,33.3,4.2,67.7z"/>
	<path id="XMLID_5_" class="st0" d="M66.8,84.8C60.4,77.6,54,70.5,47.5,63.4c-6.4-7.1-12.8-14.2-19.2-21.3
		c-9.2,13.3-11.9,37.1,4.4,55.5c-0.9,1-1.8,2-2.8,3.2c-7.6-8.4-12-18.2-13-29.4c-1.1-13.4,2.6-25.4,10.9-36
		c3.8,4.3,7.6,8.4,11.4,12.6c3.9-5,5.4-6.4,10.2-9.7C43.9,32,38.3,25.7,32.6,19.4c1.2-0.8,2.3-1.6,3.5-2.4
		c10.2,11.4,20.4,22.7,30.7,34.1C77.1,39.7,87.3,28.4,97.5,17c1.2,0.8,2.3,1.6,3.6,2.4c-5.7,6.3-11.3,12.6-16.9,18.8
		c4.1,2.6,7.5,5.8,10.3,9.8c3.8-4.2,7.6-8.4,11.4-12.5c14.9,18,15.2,46.4-2.1,65.1c-0.9-1-1.9-2.1-2.8-3.1
		c16.4-18.5,13.4-42.5,4.4-55.5C92.5,56.3,79.7,70.5,66.8,84.8z M66.8,57.5c-1.9-2.1-3.7-4.1-5.5-6.1c-2.8-3.1-5.6-6.2-8.4-9.3
		c-0.2-0.3-0.4-0.7-0.9-0.3c-4,2.4-7.2,5.5-9.8,9.5c8.2,9.1,16.4,18.2,24.6,27.3c0.1-0.1,0.2-0.2,0.3-0.2c8-8.8,16-17.6,24-26.4
		c0.4-0.4,0.3-0.7,0-1.1c-2.4-3.5-5.4-6.4-9-8.7c-0.7-0.5-1.1-0.4-1.7,0.2C76,47.3,71.5,52.3,66.8,57.5z"/>
	<path id="XMLID_4_" class="st0" d="M79.3,124c-1.7,0.3-3.2,0.6-4.6,0.8c-0.2,0-0.6-0.2-0.8-0.5c-5.1-5.6-10.1-11.2-15.2-16.7
		c-5.5-6.1-11.1-12.1-16.5-18.2c-8.5-9.6-10.7-20.7-7.1-33c0.1-0.2,0.1-0.3,0.3-0.6c1,1.2,2.1,2.2,3,3.4c0.2,0.2,0.1,0.7,0,1.1
		c-2,9.4-0.1,17.9,6.1,25.2c7.9,9.2,18,12.6,29.7,9.5C85.9,91.9,93,83.9,95.5,72.1c0.8-3.9,0.7-7.8-0.2-11.6
		c-0.2-0.8-0.1-1.3,0.5-1.9c0.9-0.8,1.7-1.8,2.6-2.9c3.3,10.4,2.3,20.1-3.4,29.1c-4,6.4-9.7,10.9-16.8,13.5
		c-7.1,2.6-14.3,2.6-21.6,0.5C64,107.1,71.6,115.5,79.3,124z"/>
	<path id="XMLID_3_" class="st0" d="M57.6,34.8c3.9-1.8,14.6-1.8,18.4,0c-1,1.1-1.9,2.2-2.9,3.2c-0.2,0.2-0.6,0.2-0.8,0.2
		c-3.7-0.7-7.3-0.7-11,0c-0.3,0-0.6,0-0.8-0.2C59.5,36.9,58.6,35.9,57.6,34.8z"/>
</g>
<g id="XMLID_24_">
	<path id="XMLID_25_" class="st0" d="M153.5,103.6c0-2.7,1.4-6.9,4.3-12.7c2.9-5.8,6.7-12.4,11.5-19.9c-4.2-0.3-8-0.5-11.3-0.5h-3.6
		c1.3-3.6,4.9-5.4,10.8-5.4c1.9,0,4.4,0.2,7.5,0.7c5.3-8.1,10.8-15.6,16.3-22.8c5.5-7.1,9.9-12.2,13.1-15.2c2-1.9,3.7-2.9,5-2.9
		c1.5,0,3.3,1.1,5.5,3.3c-1.4,1.1-3.4,5.6-6,13.5c-2.6,7.9-5,16.5-7.1,25.8c-2.1,9.3-3.1,16.9-3.1,22.6c0,2.8,0.3,4.9,0.9,6.3
		c0.6,1.4,1.6,2.1,3,2.1c3.8,0,8.4-5.1,13.6-15.4l1,1c-2.2,5.7-4.8,10.3-8.1,13.8s-6.5,5.2-10,5.2c-2.8,0-4.8-1.2-6.1-3.7
		c-1.3-2.5-2-5.9-2-10.3c0-4.4,0.6-9.6,1.8-15.5c-4.4-0.7-9.6-1.4-15.4-2.1c-6.8,12.5-12.9,25-18.1,37.5
		C154.7,107.7,153.5,105.9,153.5,103.6z M197,49.6c2.3-7,4.6-13.1,6.9-18.1c-3.1,1.9-7,6-11.5,12.3c-4.6,6.3-9.4,13.9-14.4,22.9
		c2.8,0.6,5.7,1.3,8.8,2.1l4.7,1.1C192.8,63.4,194.7,56.7,197,49.6z"/>
	<path id="XMLID_28_" class="st0" d="M213.4,100.2c-1.4-1.6-2.1-3.7-2.1-6.3c0-2.7,0.8-6.5,2.3-11.3c1.6-4.8,3.5-9,5.8-12.6
		c2.3-3.6,4.6-5.4,6.8-5.4c0.6,0,1.2,0.2,1.6,0.6c0.5,0.4,0.7,1,0.7,1.7c0,1-1.1,3.3-3.3,7c-2.3,3.8-4.1,7.2-5.5,10.3
		c-1.4,3-2,5.9-2,8.6c0,2.4,0.4,4.1,1.2,4.9c0.8,0.9,2.1,1.3,3.9,1.3c5.4,0,10.8-5.3,16-15.9l0.9,1c-1.9,5.8-4.8,10.4-8.6,13.6
		c-3.8,3.3-7.8,4.9-11.9,4.9C216.8,102.7,214.8,101.9,213.4,100.2z M228.8,54.1c-0.8-0.6-1.2-1.4-1.2-2.6c0-1.4,0.8-2.6,2.5-3.8
		c1.7-1.1,3.4-1.7,5.1-1.7c2.3,0,3.4,1.1,3.4,3.2c0,1.3-0.7,2.6-2.1,3.8c-1.4,1.2-3,1.8-4.6,1.8C230.6,55,229.6,54.7,228.8,54.1z"/>
	<path id="XMLID_31_" class="st0" d="M249.4,100.8c-1.4-1.3-2-2.9-2-4.9c0-2.4,1-5.8,3-10.2c0.9-2.3,1.6-4.1,2-5.5
		c0.5-1.4,0.7-2.6,0.7-3.8c0-1.7-0.4-3.1-1.2-4.1c-0.8-1-1.7-1.8-2.7-2.5c-1-0.7-1.6-1.1-2-1.3c-1.5,3.9-3.2,7.7-4.9,11.4
		c-1.7,3.7-3.2,6.6-4.4,8.6l-0.9-1.8c3.3-6.5,6.1-13.1,8.4-19.8c-0.7-0.7-1-1.5-1-2.5c0-1.3,0.3-2.4,0.8-3.5c0.5-1.1,1.1-2,1.9-2.6
		c0.7-0.6,1.3-0.9,1.7-0.9c1,0,1.5,0.8,1.5,2.5c0,0.3-0.2,0.9-0.5,1.9c-0.3,1-0.6,1.6-0.6,2c0,0.7,0.3,1.3,0.9,1.9
		c0.6,0.6,1.5,1.3,2.9,2.2c2.2,1.5,3.8,3,5.1,4.5c1.2,1.5,1.8,3.4,1.8,5.8c0,1.5-0.2,3-0.7,4.5c-0.5,1.5-1.2,3.5-2.2,5.9
		c-1.5,3.3-2.3,5.7-2.3,7.2c0,2.1,1,3.1,3.1,3.1s4.3-0.8,6.7-2.5s4.6-3.7,6.6-6.2c2-2.5,3.5-4.7,4.4-6.8l1.4,1
		c-2.2,4.8-5.3,9-9.4,12.7c-4.1,3.7-8.2,5.5-12.4,5.5C252.7,102.7,250.8,102,249.4,100.8z"/>
	<path id="XMLID_33_" class="st0" d="M297,93.9c0-2.5,0.2-5.6,0.7-9.4c-2.8,5.6-5.5,10-8.3,13.4c-2.7,3.4-5.5,5.1-8.4,5.1
		c-2.2,0-4.1-1-5.6-3.1c-1.5-2-2.2-4.5-2.2-7.4c0-2.6,0.5-5.7,1.6-9.5c1.1-3.8,2.4-7.1,3.9-9.9c1.5-2.8,2.7-4.2,3.7-4.2
		c0.6,0,1.3,0.2,2.3,0.6c1,0.4,1.5,0.9,1.5,1.5c-1.5,2.2-3,5.5-4.6,9.8c-1.6,4.3-2.4,8-2.4,11.1c0,1.6,0.2,3.2,0.7,4.7
		c0.5,1.5,1.5,2.3,2.9,2.3c2.2,0,4.5-1.9,7.2-5.6c2.6-3.7,5.5-8.5,8.4-14.3c0.6-2.9,1-5,1.4-6.3c0.4-1.3,0.8-2.1,1.1-2.5
		c0.4-0.4,0.9-0.6,1.6-0.6c0.9,0,1.6,0.2,2.2,0.6c0.6,0.4,0.8,1,0.8,1.7c0,0.2-0.1,0.6-0.2,1.1c-0.8,2.6-1.4,6-2,10.2
		c-0.6,4.2-0.9,8.1-0.9,11.6c0,3.4,0.8,5.1,2.3,5.1c1.9,0,4.5-2.2,7.6-6.5c3.1-4.3,6-9.3,8.5-14.8c0-8.8,1.7-13.2,5.2-13.2
		c1.2,0,2.1,0.4,2.8,1.3c0.7,0.9,1,1.8,1,2.7c0,0.7-0.3,1.7-1,2.9c-0.8,1.6-1.5,3.2-1.9,4.7c-0.5,1.6-0.7,3.7-0.7,6.3
		c0,2.3,0.3,4.2,1,5.7c0.7,1.5,2,2.2,3.9,2.2c1.5,0,3-0.6,4.3-1.8c1.3-1.2,2.6-3.2,4-5.9l1.4,1c-2.5,5.8-5.9,8.8-10.3,8.8
		c-2.2,0-4-0.7-5.5-2.2c-1.5-1.5-2.6-3.6-3.3-6.6c-2.9,5.4-6.1,10-9.5,13.8s-6.7,5.7-9.6,5.7C298.9,104,297,100.7,297,93.9z"/>
	<path id="XMLID_35_" class="st0" d="M337,102.6c-1.4-1.5-2.1-3.6-2.1-6.4c0-4.1,1.5-8.7,4.4-13.8c3-5.1,6.7-9.4,11.2-12.9
		c4.5-3.5,8.9-5.3,13.2-5.3c2.7,0,5,0.7,6.8,2.2c1.8,1.5,2.7,3.3,2.7,5.6c0,1.6-0.5,2.7-1.4,3.4c-0.9,0.7-2.2,1-3.8,1
		c0.3-1.3,0.5-2.5,0.5-3.6c0-1.7-0.4-3.1-1.3-4.2c-0.8-1.1-2.1-1.6-3.9-1.6c-3.1,0-6.3,1.7-9.6,5.1c-3.4,3.4-6.2,7.5-8.4,12.2
		c-2.3,4.7-3.4,8.8-3.4,12.2c0,2.7,0.9,4.1,2.8,4.1c2.8,0,6-2.2,9.8-6.6c3.8-4.4,7.8-9.8,12.1-16.1c0.9,0.1,1.8,0.4,2.8,0.9
		c0.9,0.5,1.4,1,1.4,1.7c0,0.6-0.3,1.4-1,2.7c-0.7,1.2-1.1,1.9-1.2,2.1c-1.2,2-2.1,3.8-2.8,5.4c-0.7,1.6-1,3-1,4.3
		c0,1.2,0.3,2.2,0.9,3.2c0.6,0.9,1.5,1.4,2.7,1.4c2,0,4.5-1.4,7.6-4.3c3.1-2.9,6.1-6.9,9.1-12.1l1,1c-1.5,3.7-3.3,7-5.6,9.8
		c-2.3,2.9-4.8,5.1-7.4,6.7c-2.6,1.6-5.2,2.4-7.6,2.4c-2.4,0-4.3-0.7-5.6-2.1c-1.3-1.4-1.9-3.1-1.9-5.2c0-0.9,0.1-1.9,0.3-3
		c-3.1,4.2-5.9,7.2-8.4,9.2c-2.5,1.9-4.9,2.9-7.3,2.9C340.2,104.9,338.4,104.1,337,102.6z"/>
	<path id="XMLID_37_" class="st0" d="M382.8,127.7c-1.3-1-1.9-2.3-1.9-4.1c0-2.8,0.9-5.2,2.7-7.3c1.8-2.1,3.9-4,6.5-5.5
		c2.6-1.6,6.3-3.6,11-6c2.1-5.3,4-11.7,5.8-19.1c-2.5,4.1-5,7.3-7.5,9.7c-2.5,2.4-5.1,3.5-7.7,3.5c-2.2,0-4.2-0.7-5.8-2.2
		c-1.7-1.5-2.5-3.5-2.5-6.3c0-2.5,0.6-5.6,1.7-9.2c1.1-3.6,2.4-6.8,3.9-9.5s2.7-4.1,3.6-4.1c0.6,0,1.5,0.3,2.8,0.8
		c1.2,0.5,1.8,1.1,1.8,1.6c-1.4,2-2.9,5.3-4.5,9.7c-1.6,4.5-2.4,8-2.4,10.7c0,2.8,1.3,4.2,3.8,4.2c1.9,0,4.1-1.3,6.6-3.9
		c2.5-2.6,4.9-5.7,7.2-9.5c0.3-1.2,0.7-2.8,1-4.8c0.3-1.3,0.8-2.5,1.7-3.6c0.9-1.1,2.1-1.7,3.6-1.7c0.6,0,1.4,0.1,2.2,0.3
		c0,1.9-0.8,5.7-2.3,11.6c-1.6,5.8-3.5,11.7-5.8,17.6c3.5-1.4,6.7-3.6,9.8-6.5c3.1-3,5.5-6.7,7.4-11.2l1.4,1
		c-2.6,8.1-9.1,14.6-19.7,19.5c-3.1,7.5-6.3,13.6-9.6,18.4c-3.4,4.8-6.7,7.1-10.1,7.1C385.6,129.1,384,128.7,382.8,127.7z
		 M390.2,123.9c1.4-1.3,3-3.3,4.7-6.1c1.7-2.8,3.5-6.3,5.2-10.5c-3.7,1.9-6.6,3.6-8.7,4.9c-2.1,1.4-3.9,2.9-5.2,4.6
		c-1.4,1.7-2,3.7-2,5.8c0,0.7,0.2,1.4,0.7,2.1c0.5,0.7,1.2,1,2.1,1C387.7,125.8,388.8,125.2,390.2,123.9z"/>
	<path id="XMLID_40_" class="st0" d="M424.5,101.2c-2.1-2.7-3.1-5.9-3.1-9.6c0-2.8,0.5-4.7,1.5-5.9c1-1.1,2-2,3.2-2.4
		c1.1-0.5,1.8-0.8,2-1c4.4-4.9,7.9-9.9,10.3-15.1v-1.3c0-2.4,0.4-4.1,1.2-5.3c0.8-1.2,1.8-1.8,2.9-1.8c0.6,0,1,0.1,1.3,0.4
		c0.3,0.2,0.4,0.6,0.4,1c0,0.3-0.1,0.9-0.3,1.7c-0.2,0.9-0.3,1.8-0.3,2.9c0,1.4,0.2,2.9,0.6,4.4c0.4,1.6,1,3.6,1.8,6.1
		c1,3,1.7,5.6,2.2,7.8c0.5,2.2,0.8,4.5,0.8,6.8c0,1.8-0.2,3.5-0.6,5.1c2.5-0.4,4.8-1.5,7-3.4c2.2-1.8,4.2-4.6,6.1-8.4l0.9,1
		c-1.3,3.6-3.2,6.5-5.7,8.5c-2.6,2.1-5.5,3.4-8.9,3.9c-1,2.8-2.7,5-5.1,6.5c-2.4,1.5-5.1,2.2-8.2,2.2
		C429.9,105.3,426.6,103.9,424.5,101.2z M441.2,96.5c-2.8-0.6-5.3-1.6-7.6-3.3c-2.3-1.6-4-3.4-5.2-5.4c-1.5,0.1-2.3,1.3-2.3,3.6
		c0,2.6,0.8,5,2.3,7c1.6,2,3.6,3.1,6.2,3.1C437.8,101.6,440,99.9,441.2,96.5z M442.2,90c0-2.1-0.2-4.2-0.5-6.3s-0.9-4.5-1.6-7.2
		c-0.6-2.8-1-4.6-1.1-5.4c-3.5,5.8-6.9,10.4-10.1,13.5c1.1,2.4,2.8,4.6,5.1,6.5c2.3,1.9,4.9,3.1,7.9,3.8
		C442,93.1,442.2,91.4,442.2,90z"/>
</g>
</svg>
