<svg width="685" height="192" viewBox="0 0 685 192" fill="none" xmlns="http://www.w3.org/2000/svg">
    <g clip-path="url(#clip0_12_2)">
        <path d="M163.78 75.9296H174.89V80.3296C176.145 78.7034 177.794 77.4232 179.68 76.6096C181.828 75.6943 184.146 75.2444 186.48 75.2896C189.905 75.2144 193.283 76.1013 196.23 77.8496C199.036 79.5993 201.27 82.1292 202.66 85.1296C204.25 88.5741 205.03 92.3369 204.94 96.1296C205.026 99.9106 204.189 103.655 202.5 107.04C200.959 110.062 198.59 112.583 195.67 114.31C192.585 116.081 189.077 116.98 185.52 116.91C183.388 116.936 181.27 116.556 179.28 115.79C177.57 115.15 176.057 114.074 174.89 112.67V132.57H163.78V75.9296ZM177 104.19C177.897 105.204 179.009 106.006 180.254 106.539C181.499 107.071 182.847 107.321 184.2 107.27C185.54 107.318 186.873 107.067 188.103 106.534C189.334 106.001 190.429 105.2 191.31 104.19C193.187 101.916 194.146 99.0238 194 96.0796C194.143 93.1033 193.173 90.1804 191.28 87.8796C190.398 86.8709 189.302 86.0718 188.072 85.5407C186.842 85.0096 185.509 84.7598 184.17 84.8096C182.822 84.7607 181.481 85.0106 180.241 85.5414C179.002 86.0721 177.895 86.8706 177 87.8796C175.11 90.1819 174.144 93.1046 174.29 96.0796C174.149 99.0265 175.115 101.92 177 104.19Z"
              fill="#0A0B0D"/>
        <path d="M219.24 114.18C216.063 112.465 213.433 109.89 211.65 106.75C209.865 103.477 208.93 99.8082 208.93 96.0801C208.93 92.3519 209.865 88.6833 211.65 85.4101C213.432 82.2673 216.062 79.6891 219.24 77.9701C222.623 76.2093 226.381 75.29 230.195 75.29C234.009 75.29 237.767 76.2093 241.15 77.9701C244.326 79.6922 246.955 82.2696 248.74 85.4101C250.525 88.6833 251.46 92.3519 251.46 96.0801C251.46 99.8082 250.525 103.477 248.74 106.75C246.955 109.888 244.325 112.462 241.15 114.18C237.767 115.941 234.009 116.86 230.195 116.86C226.381 116.86 222.623 115.941 219.24 114.18ZM222.92 104.18C223.855 105.171 224.982 105.961 226.233 106.501C227.484 107.041 228.833 107.319 230.195 107.319C231.558 107.319 232.906 107.041 234.157 106.501C235.408 105.961 236.535 105.171 237.47 104.18C239.391 101.941 240.391 99.0574 240.27 96.1101C240.401 93.134 239.401 90.2187 237.47 87.9501C236.531 86.9666 235.402 86.1838 234.151 85.6489C232.901 85.1141 231.555 84.8383 230.195 84.8383C228.835 84.8383 227.489 85.1141 226.239 85.6489C224.988 86.1838 223.859 86.9666 222.92 87.9501C220.989 90.2187 219.989 93.134 220.12 96.1101C220.007 99.0472 221.007 101.919 222.92 104.15V104.18Z"
              fill="#0A0B0D"/>
        <path d="M258.17 58.4297H269.28V116.22H258.17V58.4297Z" fill="#0A0B0D"/>
        <path d="M289.1 115.899L274.47 75.8994H285.82L294.3 101.899L302.69 75.8994H314.12L299.49 116.029L293.82 132.489H283.19L289.1 115.899Z"
              fill="#0A0B0D"/>
        <path d="M320.47 111.22C317.09 107.473 315.4 102.426 315.4 96.0797C315.307 92.2878 316.084 88.5251 317.67 85.0797C319.074 82.0605 321.343 79.5266 324.19 77.7997C327.251 76.0486 330.735 75.1765 334.26 75.2797C336.491 75.2504 338.706 75.6722 340.77 76.5197C342.571 77.2378 344.155 78.4089 345.37 79.9197V75.9197H356.56V118.6C356.64 120.487 356.31 122.369 355.592 124.117C354.874 125.864 353.785 127.434 352.4 128.72C349.633 131.253 345.967 132.516 341.4 132.51H321.1V123.8H339.64C340.429 123.824 341.214 123.675 341.939 123.364C342.664 123.053 343.313 122.587 343.84 122C344.955 120.737 345.542 119.093 345.48 117.41V112.13C344.36 113.704 342.802 114.914 341 115.61C338.921 116.454 336.694 116.876 334.45 116.85C328.51 116.856 323.85 114.98 320.47 111.22ZM329.02 104.22C329.918 105.217 331.026 106.004 332.264 106.522C333.502 107.041 334.839 107.279 336.18 107.22C337.525 107.276 338.866 107.037 340.108 106.518C341.351 106 342.464 105.215 343.37 104.22C345.27 101.942 346.242 99.0319 346.09 96.0697C346.233 93.0934 345.263 90.1705 343.37 87.8697C342.474 86.857 341.364 86.0561 340.121 85.5252C338.877 84.9942 337.531 84.7464 336.18 84.7997C334.829 84.7405 333.481 84.9867 332.238 85.52C330.995 86.0532 329.888 86.8598 329 87.8797C327.133 90.1923 326.183 93.1112 326.33 96.0797C326.164 99.0506 327.117 101.976 329 104.28L329.02 104.22Z"
              fill="#0A0B0D"/>
        <path d="M373.58 114.18C370.403 112.465 367.773 109.89 365.99 106.75C364.205 103.477 363.27 99.8082 363.27 96.08C363.27 92.3519 364.205 88.6833 365.99 85.41C367.772 82.2672 370.402 79.689 373.58 77.97C376.961 76.2094 380.718 75.29 384.53 75.29C388.342 75.29 392.099 76.2094 395.48 77.97C398.659 79.6915 401.291 82.2688 403.08 85.41C404.858 88.6853 405.79 92.3531 405.79 96.08C405.79 99.807 404.858 103.475 403.08 106.75C401.291 109.888 398.658 112.462 395.48 114.18C392.099 115.941 388.342 116.86 384.53 116.86C380.718 116.86 376.961 115.941 373.58 114.18ZM377.26 104.18C378.195 105.171 379.322 105.961 380.573 106.501C381.824 107.041 383.173 107.319 384.535 107.319C385.898 107.319 387.246 107.041 388.497 106.501C389.748 105.961 390.875 105.171 391.81 104.18C393.728 101.94 394.725 99.0562 394.6 96.11C394.735 93.1351 393.738 90.2196 391.81 87.95C390.871 86.9665 389.742 86.1837 388.491 85.6489C387.241 85.114 385.895 84.8383 384.535 84.8383C383.175 84.8383 381.829 85.114 380.579 85.6489C379.328 86.1837 378.199 86.9665 377.26 87.95C375.325 90.2161 374.324 93.1332 374.46 96.11C374.342 99.0479 375.342 101.921 377.26 104.15V104.18Z"
              fill="#0A0B0D"/>
        <path d="M411.87 75.9295H423.06V81.5295C424.192 79.548 425.887 77.9471 427.93 76.9295C430.216 75.7982 432.74 75.2324 435.29 75.2795C438.046 75.2237 440.765 75.9148 443.16 77.2795C445.413 78.6074 447.241 80.5499 448.43 82.8795C449.722 85.4273 450.367 88.2536 450.31 91.1095V116.21H439.12V93.5995C439.193 91.3969 438.421 89.2499 436.96 87.5995C436.255 86.8253 435.389 86.2141 434.424 85.8083C433.459 85.4024 432.417 85.2118 431.37 85.2495C430.248 85.2102 429.131 85.4142 428.095 85.8474C427.059 86.2807 426.13 86.933 425.37 87.7595C423.798 89.5278 422.97 91.8352 423.06 94.1995V116.26H411.87V75.9295Z"
              fill="#0A0B0D"/>
        <path d="M477.17 60.2793H512.17V66.4293H484V84.2793H506.9V90.4293H484V110.089H513.09V116.249H477.17V60.2793Z"
              fill="#0A0B0D"/>
        <path d="M527.6 114.14C524.703 112.363 522.385 109.781 520.93 106.71C519.427 103.367 518.65 99.7443 518.65 96.0797C518.65 92.415 519.427 88.792 520.93 85.4496C522.382 82.3735 524.7 79.7878 527.6 78.0097C530.763 76.1317 534.393 75.1854 538.07 75.2796C540.84 75.2677 543.567 75.9556 546 77.2796C548.29 78.4629 550.189 80.2825 551.47 82.5196V59.3896H557.86V116.22H551.47V109.58C550.186 111.824 548.289 113.656 546 114.86C543.587 116.188 540.874 116.876 538.12 116.86C534.427 116.966 530.779 116.023 527.6 114.14ZM528.88 106.99C530.103 108.349 531.611 109.423 533.296 110.133C534.982 110.843 536.803 111.173 538.63 111.1C540.452 111.177 542.268 110.848 543.947 110.137C545.627 109.426 547.127 108.351 548.34 106.99C550.78 104.243 552 100.606 552 96.0797C552 91.553 550.787 87.9163 548.36 85.1696C547.149 83.8052 545.649 82.7276 543.969 82.015C542.29 81.3024 540.473 80.9726 538.65 81.0496C536.822 80.9758 535 81.3068 533.314 82.019C531.629 82.7312 530.121 83.8071 528.9 85.1696C526.433 87.9096 525.2 91.5463 525.2 96.0797C525.2 100.613 526.427 104.25 528.88 106.99Z"
              fill="#0A0B0D"/>
        <path d="M575.64 114.14C572.737 112.366 570.416 109.784 568.96 106.71C567.457 103.368 566.68 99.7445 566.68 96.0798C566.68 92.4152 567.457 88.7922 568.96 85.4498C570.413 82.371 572.735 79.7847 575.64 78.0099C578.803 76.1319 582.432 75.1856 586.11 75.2798C588.814 75.2813 591.481 75.9112 593.9 77.1198C596.15 78.1504 598.071 79.7841 599.45 81.8398V75.9298H605.85V117.98C605.894 120.618 605.246 123.221 603.97 125.53C602.744 127.717 600.915 129.505 598.7 130.68C596.323 131.935 593.667 132.568 590.98 132.52H572V127.01H590.62C591.813 127.05 593.001 126.835 594.105 126.38C595.208 125.925 596.202 125.239 597.02 124.37C598.684 122.571 599.571 120.189 599.49 117.74V110.62C598.343 112.658 596.543 114.251 594.38 115.14C591.796 116.311 588.986 116.898 586.15 116.86C582.46 116.965 578.816 116.022 575.64 114.14ZM576.91 107.03C578.142 108.379 579.654 109.442 581.34 110.145C583.025 110.848 584.845 111.174 586.67 111.1C588.492 111.175 590.307 110.845 591.986 110.134C593.665 109.424 595.166 108.35 596.38 106.99C598.793 104.243 600 100.607 600 96.0798C600 91.5532 598.79 87.9165 596.37 85.1698C595.157 83.8071 593.657 82.7306 591.978 82.0181C590.299 81.3056 588.482 80.9749 586.66 81.0498C584.834 80.9757 583.014 81.3026 581.327 82.0075C579.641 82.7123 578.13 83.7781 576.9 85.1298C574.453 87.8432 573.23 91.5098 573.23 96.1298C573.23 100.75 574.457 104.383 576.91 107.03Z"
              fill="#0A0B0D"/>
        <path d="M616.76 85.2795C618.242 82.2545 620.555 79.7151 623.43 77.9595C626.496 76.1341 630.013 75.2056 633.58 75.2795C637.071 75.1932 640.522 76.0352 643.58 77.7195C646.36 79.2973 648.624 81.6448 650.1 84.4795C651.647 87.4651 652.43 90.7873 652.38 94.1495C652.388 95.082 652.335 96.014 652.22 96.9395H620.72C620.846 100.739 622.321 104.369 624.88 107.179C626.076 108.479 627.536 109.509 629.163 110.199C630.789 110.889 632.544 111.223 634.31 111.179C637.116 111.323 639.902 110.627 642.31 109.179C644.353 107.814 645.787 105.71 646.31 103.309H652.79C652.502 105.278 651.822 107.169 650.792 108.871C649.761 110.573 648.401 112.052 646.79 113.219C643.157 115.765 638.793 117.057 634.36 116.899C630.702 116.954 627.105 115.954 624 114.019C621.027 112.148 618.609 109.513 617 106.389C615.307 103.133 614.441 99.5097 614.48 95.8395C614.398 92.189 615.179 88.5708 616.76 85.2795ZM645.76 91.8695C645.644 88.7986 644.343 85.8921 642.13 83.7595C639.721 81.8348 636.734 80.7764 633.651 80.7546C630.567 80.7329 627.566 81.749 625.13 83.6395C622.831 85.8017 621.369 88.7053 621 91.8395L645.76 91.8695Z"
              fill="#0A0B0D"/>
        <path d="M124 62.7698L90 43.1298C87.5647 41.7342 84.8068 41 82 41C79.1932 41 76.4353 41.7342 74 43.1298L40 62.7698C37.5672 64.1744 35.547 66.1947 34.1427 68.6277C32.7384 71.0607 31.9994 73.8206 32 76.6298V115.87C31.9994 118.679 32.7384 121.439 34.1427 123.872C35.547 126.305 37.5672 128.325 40 129.73L74 149.37C76.4323 150.774 79.1914 151.513 82 151.513C84.8086 151.513 87.5677 150.774 90 149.37L124 129.73C126.433 128.325 128.453 126.305 129.857 123.872C131.262 121.439 132.001 118.679 132 115.87V76.6298C132.001 73.8206 131.262 71.0607 129.857 68.6277C128.453 66.1947 126.433 64.1744 124 62.7698ZM78 50.0698C79.2145 49.3627 80.5947 48.9902 82 48.9902C83.4053 48.9902 84.7855 49.3627 86 50.0698L120 69.6898H120.06L82 92.1498L65.06 82.1498L82 72.3698L91.18 77.6698L99.06 73.0098L86 65.4498C84.7838 64.7476 83.4043 64.378 82 64.378C80.5957 64.378 79.2162 64.7476 78 65.4498L57.32 77.3898C57.2688 77.4163 57.2217 77.45 57.18 77.4898L44 69.6898L78 50.0698ZM44 122.81C42.7821 122.107 41.7711 121.095 41.0688 119.876C40.3666 118.658 39.9979 117.276 40 115.87V76.6298L78.06 99.1298V117.85L61.32 108.19V98.5298L53.32 93.7898V108.19C53.3214 109.593 53.6918 110.971 54.3938 112.185C55.0959 113.4 56.105 114.408 57.32 115.11L78 127.05H78.06V142.43H78L44 122.81ZM124 115.87C124.002 117.276 123.633 118.658 122.931 119.876C122.229 121.095 121.218 122.107 120 122.81L86.06 142.39V99.0498L102.68 89.2798V108.2L94.06 113.2V122.42L106.68 115.14C107.895 114.438 108.904 113.43 109.606 112.215C110.308 111.001 110.679 109.623 110.68 108.22V84.5498L124 76.6898V115.87Z"
              fill="#7B3FE4"/>
    </g>
    <defs>
        <clipPath id="clip0_12_2">
            <rect width="620.77" height="110.51" fill="white" transform="translate(32 41)"/>
        </clipPath>
    </defs>
</svg>
