<?xml version="1.0" encoding="utf-8"?>
<!-- Generator: Adobe Illustrator 19.0.0, SVG Export Plug-In . SVG Version: 6.00 Build 0)  -->
<svg version="1.1" id="Layer_1" xmlns="http://www.w3.org/2000/svg" xmlns:xlink="http://www.w3.org/1999/xlink" x="0px" y="0px"
	 width="305.2px" height="249.9px" viewBox="0 0 305.2 249.9" style="enable-background:new 0 0 305.2 249.9;" xml:space="preserve"
	>
<style type="text/css">
	.st0{fill:#FFFFFF;}
</style>
<g id="XMLID_1_">
	<path id="XMLID_13_" class="st0" d="M0,222.4c33.5,2.2,63.9-5.8,91.4-26.6c-28.9-2.6-48-17.2-58.7-44.1c9.5,0,18.3,0,27.2,0
		c0.1-0.4,0.1-0.8,0.2-1.2c-18.6-4.9-32.5-15.6-41.6-32.4c-4.9-9.1-7.5-18.9-7.3-29.8c8.8,4.3,17.5,7.2,27.3,7.4
		C11.9,72.1,3.7,44.9,20.1,11.5c34.2,39.9,76.7,62.4,129.3,65.8c-0.4-3.3-0.7-6.1-0.9-8.9c-2.3-26,11.9-50.8,35.4-62.1
		c23.5-11.3,51.8-6.9,70.6,11.1c2,1.9,3.7,2.6,6.5,1.8c11.3-2.9,22.2-6.9,32.4-12.4c0.9-0.5,1.8-0.9,3.6-1.8
		c-5,14.8-13.6,25.6-25.6,34.4c3.6-0.7,7.3-1.3,10.9-2.2c3.8-0.9,7.5-1.9,11.2-3.1c3.6-1.1,7.2-2.5,10.8-3.8
		c0.3,0.3,0.5,0.5,0.8,0.8c-4.7,5.6-9.1,11.4-14.1,16.7c-4.5,4.7-9.5,8.9-14.5,13c-2,1.6-2.6,3.1-2.6,5.6
		c-0.6,68-28.2,121.8-85.8,158.6c-31.5,20.1-66.9,26.8-104,24.6c-29.5-1.7-56.8-10.4-82-25.8C1.4,223.3,0.7,222.8,0,222.4z"/>
</g>
</svg>
