<svg xmlns="http://www.w3.org/2000/svg" viewBox="0 0 1280 259.68"><defs><style>.cls-1{fill:#fff;}.cls-2{fill:#00be8d;}</style></defs><g id="Layer_2" data-name="Layer 2"><g id="Layer_1-2" data-name="Layer 1"><path class="cls-1" d="M221.81,156a.68.68,0,0,0,.38-.62v-24.9a12.71,12.71,0,0,1,4.4-1.41A8.2,8.2,0,0,1,230,130v25.36a8.55,8.55,0,0,1-4.84,7.69l-49.52,23.68a102.59,102.59,0,0,1,3.25-10.24Z"/><path class="cls-2" d="M50.46,99.61c-6.22,0-12.51-1.83-19.54-1.83C13.13,97.78,0,111.5,0,111.5s7.8-3.53,17.23,1.85c11.06,6.32,26.41,11.29,52.43,11.29,27.12,0,36.61,15,36.68,15.15h0V78.93h0C92.43,78.93,74.63,99.61,50.46,99.61Z"/><path class="cls-2" d="M141,4.85a19.48,19.48,0,0,1,2.39,7.88c.11,1,1.2,14.27,2.69,19.89,3.2,12,12,21.39,20.12,27.41C187.7,76,197.09,77.8,197.09,77.8s-14.61,3.29-25.49-.31C159,73.33,142.08,59,126.67,58.6v-50a10.86,10.86,0,0,1,2.71-6.94C133-2,138.82,1.07,141,4.85Z"/><path class="cls-2" d="M182.55,99.61c6.22,0,12.51-1.83,19.54-1.83,17.79,0,30.92,13.72,30.92,13.72s-7.8-3.53-17.23,1.85c-11.06,6.32-26.41,11.29-52.43,11.29-27.22,0-36.68,15.15-36.68,15.15V78.93C140.58,78.93,158.38,99.61,182.55,99.61Z"/><path class="cls-2" d="M92,4.85a19.48,19.48,0,0,0-2.39,7.88c-.11,1-1.2,14.27-2.69,19.89C83.76,44.61,75,54,66.84,60,45.31,76,35.92,77.8,35.92,77.8s14.61,3.29,25.49-.31C74,73.33,90.93,59,106.34,58.6h0v-50a10.86,10.86,0,0,0-2.71-6.94C100-2,94.19,1.07,92,4.85Z"/><path class="cls-2" d="M106.34,164.36S91.92,144.7,69.61,144.7c-16.49,0-26-3.18-26-3.18.27.2,14.62,7.53,21.52,17,6.37,8.81,10.25,25.41,11.46,30.94,7.67,35.18,29.72,70.17,29.72,70.17Z"/><path class="cls-2" d="M126.67,164.36s14.42-19.66,36.73-19.66c16.49,0,26-3.18,26-3.18-.27.2-14.62,7.53-21.52,17-6.37,8.81-10.25,25.41-11.46,30.94-7.67,35.18-29.72,70.17-29.72,70.17Z"/><path class="cls-1" d="M10.82,57.53a.7.7,0,0,1,.39-.62L69.1,29.23c.14-.42.27-.85.38-1.27a67.2,67.2,0,0,0,1.28-8.21L7.83,49.85A8.5,8.5,0,0,0,3,57.53V87.1a65.25,65.25,0,0,1,7.83-3.59Z"/><path class="cls-1" d="M11.21,156a.67.67,0,0,1-.39-.62v-24.9a12.63,12.63,0,0,0-4.4-1.41A8.18,8.18,0,0,0,3,130v25.36a8.53,8.53,0,0,0,4.84,7.69l49.52,23.68a105.26,105.26,0,0,0-3.25-10.24Z"/><path class="cls-1" d="M163.91,29.23,221.8,56.91a.7.7,0,0,1,.39.62v26A65.25,65.25,0,0,1,230,87.1V57.53a8.5,8.5,0,0,0-4.84-7.68l-62.93-30.1A67.2,67.2,0,0,0,163.53,28C163.64,28.38,163.77,28.81,163.91,29.23Z"/><path class="cls-1" d="M698.81,160.88V52.45h44.46c26.08,0,39.86,12.14,41.66,36.58,0,12.14-4.26,21.49-12.63,27.89-8.53,6.23-18.53,9.51-30.35,9.51l-10.49-15.91h10.17c14.27,0,21.65-6.89,22.63-20.67q0-20.65-23.13-21.16h-22v92.19Z"/><path class="cls-1" d="M283.13,69.19V52.45h90.22V69.19H338.41v91.53H318.07V69.19Z"/><path class="cls-1" d="M490.79,160.72,455,108.23h15.74c13.94,0,21.16-6.4,21.82-19.36,0-13.29-7.38-20-22.31-20.18H442.73v92H422.39V52.45h50c14.11,0,24.77,3.61,32,11q8.85,8.86,8.86,23.63c0,17.05-8.86,28.37-26.74,34l27.07,39.7Z"/><path class="cls-1" d="M971,157.93c-8-2.79-14.6-6.4-19.36-10.83l11-13.28A68.74,68.74,0,0,0,977.69,143a43.1,43.1,0,0,0,18.54,3.94c5.41,0,10-1.15,13.45-3.61,3.61-2.3,5.25-5.74,5.25-10.33v-.33a12.27,12.27,0,0,0-1.31-6.07,10.91,10.91,0,0,0-4.11-4.6,40,40,0,0,0-7.54-3.6c-3.12-1-7.05-2.3-11.81-3.45a121.85,121.85,0,0,1-15.26-4.59,41.69,41.69,0,0,1-11.15-5.91A22.07,22.07,0,0,1,957,96.09c-1.64-3.28-2.29-7.55-2.29-12.47v-.33A29.43,29.43,0,0,1,957.19,71a28.7,28.7,0,0,1,7.38-9.68,37.33,37.33,0,0,1,11.81-6.56,50.56,50.56,0,0,1,15.42-2.3,65,65,0,0,1,22.31,3.61c6.72,2.46,12,5.09,15.91,8.21l-9.68,14.1A68.62,68.62,0,0,0,1006.56,71a37.72,37.72,0,0,0-15.09-3.12c-5.25,0-9.35,1.15-12.46,3.61a11.66,11.66,0,0,0-4.6,9.52v.32a13.79,13.79,0,0,0,1.48,6.57,12,12,0,0,0,4.76,4.75,33.38,33.38,0,0,0,8,3.28A122.13,122.13,0,0,0,1001,99.37c5.57,1.64,10.49,3.28,14.92,5.08a43.31,43.31,0,0,1,10.66,6.24,26.66,26.66,0,0,1,6.24,8.2,29.16,29.16,0,0,1,2,11.32v.32a31.62,31.62,0,0,1-2.79,13.29,26.79,26.79,0,0,1-7.71,9.84,36.67,36.67,0,0,1-12.3,6.4,56.18,56.18,0,0,1-16.24,2.3A71.14,71.14,0,0,1,971,157.93Z"/><path class="cls-1" d="M1064.79,52.45h23.13l28.54,48.07,29-48.07h22.31l-41.33,64.63v43.64h-20.34V117.58Z"/><path class="cls-1" d="M1216.19,157.93c-8-2.79-14.6-6.4-19.36-10.83l11-13.28a68.58,68.58,0,0,0,15.1,9.18,43.05,43.05,0,0,0,18.53,3.94c5.42,0,10-1.15,13.45-3.61,3.61-2.3,5.25-5.74,5.25-10.33v-.33a12.27,12.27,0,0,0-1.31-6.07,10.88,10.88,0,0,0-4.1-4.6,40.13,40.13,0,0,0-7.55-3.6c-3.11-1-7-2.3-11.81-3.45a121.67,121.67,0,0,1-15.25-4.59,41.91,41.91,0,0,1-11.16-5.91,22,22,0,0,1-6.72-8.36c-1.64-3.28-2.3-7.55-2.3-12.47v-.33a29.43,29.43,0,0,1,2.46-12.3,29,29,0,0,1,7.38-9.68,37.44,37.44,0,0,1,11.81-6.56,50.66,50.66,0,0,1,15.42-2.3,65,65,0,0,1,22.31,3.61c6.73,2.46,12,5.09,15.91,8.21l-9.67,14.1A69.17,69.17,0,0,0,1251.79,71a37.77,37.77,0,0,0-15.1-3.12c-5.24,0-9.34,1.15-12.46,3.61a11.68,11.68,0,0,0-4.59,9.52v.32a13.91,13.91,0,0,0,1.47,6.57,12.13,12.13,0,0,0,4.76,4.75,33.3,33.3,0,0,0,8,3.28,121.85,121.85,0,0,0,12.3,3.45c5.58,1.64,10.5,3.28,14.93,5.08a43.69,43.69,0,0,1,10.66,6.24,26.46,26.46,0,0,1,6.23,8.2,29.16,29.16,0,0,1,2,11.32v.32a31.46,31.46,0,0,1-2.79,13.29,26.69,26.69,0,0,1-7.71,9.84,36.48,36.48,0,0,1-12.3,6.4,56.13,56.13,0,0,1-16.24,2.3A71.14,71.14,0,0,1,1216.19,157.93Z"/><polygon class="cls-1" points="908.8 68.36 908.8 52.45 827.11 52.45 827.11 160.55 908.8 160.55 908.8 144.64 844.67 144.64 844.67 114.46 875.34 114.46 875.34 98.55 844.67 98.55 844.67 68.36 908.8 68.36"/><polygon class="cls-1" points="610.37 52.45 589.87 52.45 543.61 161.21 564.28 161.21 600.12 73.23 635.96 161.21 656.63 161.21 610.37 52.45"/></g></g></svg>